PathFileType	4	(X/Y/Z)	70_1_32_p1_0-327.trc
DataRate	CameraRate	NumFrames	NumMarkers	Units	OrigDataRate	OrigDataStartFrame	OrigNumFrames
60.0	60.0	6	27	m	60.0	82	328
Frame#	Time	RHip			RKnee			RAnkle			RBigToe			RSmallToe			RHeel			LHip			LKnee			LAnkle			LBigToe			LSmallToe			LHeel			Neck			Head			Nose			RShoulder			RElbow			RWrist			RThumb			RIndex			RPinky			LShoulder			LElbow			LWrist			LThumb			LIndex			LPinky			
		X1	Y1	Z1	X2	Y2	Z2	X3	Y3	Z3	X4	Y4	Z4	X5	Y5	Z5	X6	Y6	Z6	X7	Y7	Z7	X8	Y8	Z8	X9	Y9	Z9	X10	Y10	Z10	X11	Y11	Z11	X12	Y12	Z12	X13	Y13	Z13	X14	Y14	Z14	X15	Y15	Z15	X16	Y16	Z16	X17	Y17	Z17	X18	Y18	Z18	X19	Y19	Z19	X20	Y20	Z20	X21	Y21	Z21	X22	Y22	Z22	X23	Y23	Z23	X24	Y24	Z24	X25	Y25	Z25	X26	Y26	Z26	X27	Y27	Z27	
82	1.3666666666666667	0.36533191165301254	0.5039750398168606	0.1390773926169171	0.3450517219533676	0.6487775805719689	0.5177010558083892	0.36212646636466433	0.7725028369652923	0.9365452210792529	0.3188419553392854	0.6227576790274424	1.001115425550152	0.3869371159476869	0.6260929545749054	0.994026116570675	0.36990115982107635	0.8421983076434962	0.9731529054318118	0.11445622184005967	0.5795656351729956	0.14368249556761975	0.14810796898705417	0.7269365653879665	0.5483061887567736	0.17295314344136514	0.8028743190448047	0.9522369387988552	0.16622041657474962	0.645165533410374	0.9943025747722025	0.10401652397146542	0.7060724545982071	0.9941650438951971	0.19817908231820097	0.8302264707629146	0.9825269948971214	0.23574745299414207	0.38817031660955775	-0.44936278757542986	0.21294995972318118	0.26285473325141984	-0.6882441299558967	0.21208183740792083	0.21989182488808856	-0.5332652834943206	0.40249633837915516	0.3635146439958486	-0.3422611895461399	0.4963781518992851	0.44166665472814737	-0.09290578755738414	0.5348942345769208	0.38538533410699327	0.14348407595060872	0.4660066511807868	0.39225744585751476	0.2786563962776867	0.49920178728358605	0.382049911722114	0.287491992292059	0.5427290620467056	0.415795432283245	0.28755853447383645	0.06601930175561663	0.4313990219939787	-0.35186949923997457	-0.01856023275853605	0.5075663349526804	-0.09952838625037559	-0.05401725701599608	0.5106450822113874	0.12902245214380859	0.011405738585064726	0.46813664239367725	0.22237799362808947	-0.007480068636531859	0.4840575431721932	0.2529503633310038	-0.046109729132760006	0.5396344272888504	0.25954141862219604
83	1.3833333333333333	0.3654878394137059	0.5040730944363336	0.1388448937134448	0.35066892732971644	0.6619034238001237	0.5199797740470421	0.36213138292596614	0.7728244392066951	0.9365094047674392	0.318960581898689	0.6229566241142384	1.0011275339015444	0.38912612014085435	0.6271211396051112	0.9955254281309153	0.36992485134275244	0.8428564611101689	0.9731289118808333	0.11443744480161072	0.5802243309681124	0.1434894915873106	0.1433272898732065	0.7259442109843185	0.5482596793505714	0.17160073644783466	0.8001217407040564	0.9467052962447736	0.16617039955120527	0.6443805116019452	0.9941269113663374	0.10812914487810245	0.7068669951527917	0.994588816635198	0.19776519191881334	0.8306469097303729	0.9829389064784892	0.23573829258344586	0.3881226771909095	-0.4494758362677107	0.21307997531977776	0.2624863232904015	-0.6882049073883956	0.21598610433697848	0.22001439566815126	-0.5333270387768839	0.401749909919453	0.3615440184341386	-0.345948858596706	0.5023081997470105	0.42774999802429575	-0.097095443404768	0.5438542108663665	0.36897252889693966	0.11861181608453944	0.5005475689373642	0.3454071724748072	0.2665782121034106	0.5347924699499563	0.39153609173194737	0.28042528325530874	0.552146541974028	0.41555140365396614	0.28684695445226793	0.0588172712347299	0.4441041507256658	-0.3493672368314142	-0.02643455975087787	0.5058849053285738	-0.10678015447229768	-0.06438325028926732	0.4928231152894681	0.11625651683409292	-0.019704913799570477	0.4894176249247289	0.22086794965879156	-0.048842501516797414	0.5245886111551471	0.24957683312289786	-0.060284096246437484	0.5296947416198373	0.23910158810023024
84	1.4	0.3659215977661506	0.5016242526395969	0.12707856157034247	0.3480410065895248	0.6598945944446206	0.5108736695767175	0.362216975980104	0.7718452669817553	0.9405445845062128	0.324458127813481	0.6374873823521846	1.0065747524935877	0.3949623283451719	0.6420588163850127	1.000591391368798	0.3616567547977131	0.8449609788842972	0.9739998898021441	0.114763904176064	0.5788111072025468	0.1354271257235706	0.1487076958545447	0.7256522337491261	0.5443197858090042	0.17153306104594995	0.7999216131665867	0.9470329316603148	0.16531804782751147	0.6233463099706664	0.986482908364244	0.10736950481349294	0.6875802261078451	0.9877519689150625	0.19328721842879112	0.8487550663620845	0.9936713105853752	0.23572149282109786	0.3880783043321766	-0.4495762793236751	0.20924792560740213	0.2510558895587979	-0.6858003346880194	0.21196204506079055	0.2197273559464181	-0.5328239334158799	0.4019480092593914	0.36170696060941754	-0.34600658691923974	0.5071881549293102	0.4286981491789946	-0.10547143680944365	0.5820212948181456	0.3626630504827538	0.10789403313521463	0.5396608725890496	0.374861238676212	0.26551195711350045	0.5467397853202994	0.3871237030998852	0.27978379649217494	0.560162268804722	0.42115400344276605	0.26491409107864605	0.05852522033066944	0.4444489477336446	-0.3493288068089958	-0.03478079320147223	0.5161527668583528	-0.11098607907986008	-0.08486663270040685	0.475688104834465	0.10010999172507098	-0.056847974844648	0.5090345363799101	0.20812730107507402	-0.0804397330302036	0.47304780735360136	0.22003797558009694	-0.08248910540583351	0.49941175811085625	0.22080991994093493
85	1.4166666666666667	0.37158570024325355	0.5140488431825667	0.13199740205803823	0.3425798257507329	0.6460630212924242	0.5122591193595102	0.3622385193776413	0.7719366279974647	0.9404916275253205	0.3243707546153438	0.6375625291947752	1.0064093842030744	0.38450809387620705	0.6283383561244198	0.9958040262206563	0.367755576681873	0.8611213496082413	0.9791642506295664	0.11487721172293508	0.5785574508034838	0.1397316452184252	0.14294475689781927	0.7221654095683337	0.539358853633024	0.17150983647341708	0.7999400326149784	0.9467249418248713	0.1617337874182688	0.6405260843979179	0.9967584311140857	0.10377571349152076	0.7042635487193475	0.9935899320268643	0.19723233095719467	0.8291191279726171	0.9829519544892764	0.23578414805619036	0.3881637284213968	-0.4494722857773251	0.2129676063287678	0.2620883396447047	-0.6880634443166094	0.21240978587047007	0.22076958600314592	-0.5295035458130005	0.4074205525525712	0.3726023394081955	-0.35029748539901895	0.5303269121712568	0.4461463346875931	-0.11420426652805804	0.6104766217051546	0.34148756848215256	0.09500470042387013	0.5535743379180641	0.36163953802478616	0.24266094950324732	0.5666041755838802	0.33732785871757803	0.26266718476203454	0.5900091892934881	0.4192839756623039	0.246700746502108	0.058312903276893265	0.4433387427786436	-0.3531384645244338	-0.05543451734587742	0.5126752086922378	-0.12127943840413825	-0.1131160095399637	0.4835926069571694	0.08952235568024827	-0.07768242623382494	0.4827867552686922	0.1943838036727779	-0.11789944454610053	0.465137736884752	0.2166893524797311	-0.12171438903195285	0.5045607860366723	0.22140031519596123
86	1.4333333333333333	0.371555841421382	0.5141812597716279	0.13200460422469024	0.34276843177402344	0.6462874489527121	0.5124397581798676	0.36295983688302397	0.770419244905439	0.9358759565622446	0.31660283969869396	0.6386874508173117	1.0072252379954805	0.38449315449112365	0.6281560614007475	0.9960451656656603	0.3678031884583041	0.8616164055085626	0.9791168428452495	0.11319334888239727	0.5502476125123229	0.13734660903319962	0.1429690830602367	0.7221781557810962	0.5392783011130219	0.17147795395612397	0.7999433654231446	0.9467579843386023	0.1639179295378435	0.614613822480665	0.9836914753904469	0.10495588823302884	0.7059044389611975	0.9985998289192306	0.19429151766894548	0.8458288255525206	0.9886821090436008	0.23578181232049641	0.38798162546627485	-0.44937463072898565	0.2129580367146839	0.2627208476163885	-0.6854772986992517	0.21241763568461608	0.22058239352573675	-0.5294911816240563	0.407539742592681	0.3727301084210192	-0.35042559577926846	0.5485922732206616	0.42052702704358136	-0.12659447955848835	0.6225345636106022	0.3361440957374715	0.08310222145241893	0.5869895877269107	0.2861416115482163	0.19652038818068504	0.6095469637340366	0.3242878223965174	0.2371781679327858	0.6245446078332295	0.429790553215758	0.24847125332732978	0.06154678147679478	0.43073622835936815	-0.35197749692366936	-0.07568927612471968	0.5506311657156338	-0.12808298891486572	-0.14205555487155047	0.5047918797105772	0.07930405527951846	-0.1387970576660003	0.4840248401444751	0.16519504695520743	-0.15627767447339821	0.49920122302638165	0.18893960270507706	-0.1470954186396771	0.5135799388777728	0.21463859133323712
87	1.45	0.36689756806920426	0.5135073230877311	0.1281064175162531	0.3477908061346267	0.6612684557920028	0.5195423566181702	0.3627528391785308	0.7714702856169146	0.9318235702015565	0.32235648092077734	0.6533886267026126	1.0122178613355919	0.39495032623234105	0.6421986301239689	1.0006247784283682	0.3676539283227391	0.8614502662679865	0.9790680953473736	0.11341427853863717	0.550153584119449	0.12933626502109477	0.14770457107220433	0.7229947056804751	0.5392962416452276	0.17144689451057324	0.7999103863040747	0.9465210884000783	0.16959929870039928	0.6261293017550401	0.9835141927511604	0.10768275382987848	0.7046818570641505	0.9937642888940803	0.19367653725893422	0.8486618414936883	0.9932142478143762	0.23534161139347842	0.3868651671997325	-0.4523437733205673	0.2127133540501028	0.26211821674911806	-0.6880039891541775	0.21235911696035337	0.2210620319296194	-0.5264001818761278	0.40943180432149145	0.3588641468334147	-0.35278538274008786	0.5648685411088169	0.40057572028483224	-0.13446398343836533	0.6542032403875222	0.310623890092349	0.06493071055824554	0.6320063877585835	0.3278859636732278	0.1843222532433941	0.6418411180619433	0.3485791687046573	0.21736509900211162	0.6390550501434613	0.355129077348834	0.19880161463694213	0.05694061009138704	0.4280112929024543	-0.3552632261741813	-0.08888602846369627	0.5482100066367692	-0.1365697635617212	-0.170335147868054	0.5215075285607504	0.05877992592427277	-0.15536515722077598	0.517713139635508	0.15117576153671336	-0.1930895059156152	0.47863604910062213	0.17932118164711516	-0.16903721220906376	0.5106640583930303	0.18781677186979173
